<svg aria-hidden="true" style="position: absolute; width: 0; height: 0; overflow: hidden;" version="1.1" xmlns="http://www.w3.org/2000/svg" xmlns:xlink="http://www.w3.org/1999/xlink">
<defs>
<symbol id="icon-telephone-recevier" viewBox="0 0 28 32">
<path d="M26.209 23.222l-0.182-0.227c-1.44-1.821-2.645-2.769-3.678-2.894-0.894-0.122-1.758 0.496-2.676 1.131l-0.981 0.614c-0.097 0.050-0.211 0.097-0.329 0.134l-0.015 0.004c-0.574 0.162-2.022 0.258-2.842-0.493-0.955-0.874-2.436-2.472-3.589-3.87-1.1-1.446-2.31-3.25-2.941-4.385-0.534-0.962-0.087-2.307 0.211-2.806 0.058-0.098 0.136-0.194 0.221-0.29l0.866-0.8c0.013-0.012 0.018-0.028 0.030-0.039 0.008-0.008 0.022-0.006 0.032-0.012 0.781-0.66 1.589-1.338 1.699-2.211 0.13-1.024-0.506-2.41-1.95-4.23l-0.176-0.227c-0.894-1.145-2.246-2.877-4.186-2.59-0.762 0.113-1.443 0.373-2.146 0.814-0.007 0.004-0.011 0.012-0.017 0.016s-0.013 0.005-0.018 0.009l-0.978 0.726c-0.010 0.006-0.016 0.018-0.026 0.026-0.006 0.007-0.018 0.008-0.026 0.016-0.131 0.11-0.242 0.206-0.35 0.304l0.012-0.010c-0.993 0.885-3.142 3.454-1.677 8.205 0.946 3.069 2.898 6.65 5.658 10.377l-0.027 0.022 1.522 1.896 0.012-0.010c2.992 3.539 6.037 6.274 8.827 7.93 1.862 1.106 3.489 1.472 4.827 1.472 1.762 0 3.022-0.633 3.656-1.045l0.397-0.266c0.045-0.031 0.078-0.074 0.11-0.114l0.866-0.653c0.010-0.008 0.016-0.019 0.026-0.028 0.004-0.004 0.011-0.002 0.016-0.006 0.616-0.563 1.043-1.152 1.34-1.851 0.769-1.79-0.608-3.506-1.518-4.641zM26.698 27.424c-0.231 0.543-0.568 1.005-1.056 1.453l-1.289 0.97c-1.168 0.758-3.664 1.696-7.29-0.456-2.79-1.656-5.862-4.456-8.885-8.098l-0.818-1.033c-2.846-3.774-4.848-7.39-5.793-10.453-1.228-3.982 0.319-6.119 1.355-7.042 0.104-0.096 0.21-0.184 0.314-0.272l0.004-0.004 0.939-0.696c0.571-0.361 1.101-0.562 1.71-0.655 1.301-0.196 2.359 1.176 3.136 2.173l0.182 0.232c1.613 2.034 1.768 3.001 1.718 3.396-0.056 0.438-0.722 1-1.31 1.494l-0.083 0.070-0.006 0.010-0.013 0.006-0.894 0.828c-0.006 0.006-0.008 0.012-0.014 0.019s-0.016 0.010-0.022 0.017c-0.128 0.14-0.245 0.294-0.347 0.459l-0.008 0.013c-0.502 0.842-0.977 2.58-0.228 3.926 0.654 1.176 1.898 3.034 3.042 4.534 1.195 1.45 2.72 3.097 3.709 4 0.74 0.676 1.77 0.903 2.662 0.903 0.478 0 0.916-0.066 1.248-0.16 0.174-0.050 0.355-0.123 0.542-0.214 0.011-0.006 0.016-0.015 0.028-0.022 0.006-0.002 0.014-0.001 0.019-0.006l1.039-0.65c0.034-0.022 0.056-0.051 0.084-0.080l0.012 0.014c0.64-0.444 1.37-0.965 1.826-0.889 0.405 0.049 1.323 0.438 2.939 2.478l0.186 0.234c0.787 0.981 1.865 2.325 1.362 3.5z"></path>
</symbol>
<symbol id="icon-facebook" viewBox="0 0 19 32">
<path d="M17.882 0.236c-1.34-0.15-2.894-0.236-4.468-0.236-0.045 0-0.090 0-0.135 0l0.007-0c-5.091 0-8.253 3.243-8.253 8.461v3.543h-4.276c-0.418 0-0.756 0.338-0.757 0.756v5.827c0 0.418 0.339 0.757 0.757 0.757v0h4.276v11.684c0 0.418 0.339 0.757 0.757 0.757v0h6.020c0.418 0 0.757-0.339 0.757-0.757v0-11.684h4.262c0 0 0 0 0 0 0.383 0 0.7-0.285 0.75-0.654l0-0.004 0.752-5.827c0.004-0.030 0.006-0.064 0.006-0.099 0-0.418-0.339-0.757-0.757-0.757-0 0-0 0-0 0h-5.014v-2.965c0-1.468 0.295-2.081 2.131-2.081h3.087c0.418 0 0.757-0.339 0.757-0.757v0-5.214c0-0 0-0 0-0 0-0.383-0.285-0.7-0.655-0.75l-0.004-0zM17.027 5.443l-2.331 0.002c-3.265 0-3.644 2.052-3.644 3.594v3.723c0 0 0 0 0 0 0 0.417 0.338 0.756 0.755 0.757h4.913l-0.559 4.314h-4.353c-0.418 0-0.757 0.339-0.757 0.757v0 11.681h-4.506v-11.681c0-0.418-0.339-0.757-0.757-0.757v0h-4.275v-4.315h4.274c0.418 0 0.757-0.339 0.757-0.757v0-4.3c0-4.35 2.519-6.947 6.739-6.947 1.527 0 2.906 0.083 3.741 0.156v3.773z"></path>
</symbol>
<symbol id="icon-instagram" viewBox="0 0 32 32">
<path d="M15.591 8.273c-4.042 0-7.318 3.277-7.318 7.318s3.277 7.318 7.318 7.318v0c4.042 0 7.318-3.277 7.318-7.318s-3.277-7.318-7.318-7.318v0zM15.591 21c-2.987 0-5.409-2.422-5.409-5.409s2.422-5.409 5.409-5.409c2.987 0 5.409 2.422 5.409 5.409v0c-0.009 2.984-2.425 5.4-5.408 5.409h-0.001zM22.591 0h-14.001c-4.745 0.001-8.591 3.847-8.591 8.591v14c0 4.745 3.847 8.591 8.591 8.591v0h14c4.745 0 8.591-3.847 8.591-8.591v0-14.001c-0.001-4.745-3.847-8.591-8.591-8.591-0 0-0.001 0-0.001 0h0zM29.272 22.591c0 3.69-2.991 6.681-6.681 6.681v0h-14.001c-3.69 0-6.681-2.991-6.681-6.681v0-14.001c0-3.69 2.991-6.681 6.681-6.681v0h14.001c3.69 0 6.681 2.991 6.681 6.681v14.001zM25.455 7.318c0 0.878-0.712 1.59-1.59 1.59s-1.59-0.712-1.59-1.59v0c0-0.878 0.712-1.59 1.59-1.59s1.59 0.712 1.59 1.59v0z"></path>
</symbol>
<symbol id="icon-arrow-left" viewBox="0 0 38 32">
<path d="M0.625 17.218c-0.386-0.386-0.625-0.919-0.625-1.508s0.239-1.122 0.625-1.508l13.577-13.577c0.39-0.415 0.942-0.673 1.555-0.673 1.178 0 2.133 0.955 2.133 2.133 0 0.613-0.259 1.166-0.673 1.555l-0.001 0.001-12.066 12.068 12.068 12.068c0.402 0.388 0.651 0.932 0.651 1.534 0 1.178-0.955 2.133-2.133 2.133-0.602 0-1.146-0.249-1.534-0.651l-0.001-0.001-13.577-13.577zM37.892 17.843h-35.759v-4.267h35.759v4.267z"></path>
</symbol>
<symbol id="icon-arrow-right" viewBox="0 0 38 32">
<path d="M37.269 14.202c0.386 0.386 0.625 0.919 0.625 1.508s-0.239 1.122-0.625 1.508l-13.579 13.577c-0.383 0.371-0.906 0.599-1.482 0.599-1.178 0-2.133-0.955-2.133-2.133 0-0.576 0.228-1.099 0.599-1.483l-0.001 0.001 12.068-12.068-12.070-12.068c-0.386-0.386-0.624-0.919-0.624-1.508 0-1.178 0.955-2.134 2.134-2.134 0.59 0 1.123 0.239 1.509 0.625l13.577 13.577zM35.759 17.843h-35.759v-4.267h35.759v4.267z"></path>
</symbol>
</defs>
</svg>
